HIERARCHY
ROOT Hips
{
 OFFSET 0.000000 0.000000 0.000000
 CHANNELS 6 Xposition Yposition Zposition Yrotation Xrotation Zrotation
 JOINT Chest
 {
  OFFSET 0.000000 9.643200 0.003500
  CHANNELS 3 Yrotation Xrotation Zrotation
  JOINT Chest2
  {
   OFFSET 0.000000 10.520700 -0.007100
   CHANNELS 3 Yrotation Xrotation Zrotation
   JOINT Chest3
   {
    OFFSET 0.000000 10.477600 0.000000
    CHANNELS 3 Yrotation Xrotation Zrotation
    JOINT Chest4
    {
     OFFSET 0.000000 10.467000 0.000000
     CHANNELS 3 Yrotation Xrotation Zrotation
     JOINT Neck
     {
      OFFSET 0.000000 15.924500 0.000000
      CHANNELS 3 Yrotation Xrotation Zrotation
      JOINT Head
      {
       OFFSET 0.000000 9.791600 -0.014900
       CHANNELS 3 Yrotation Xrotation Zrotation
       End Site
       {
        OFFSET 0.000000 18.693700 -0.007900
       }
      }
     }
     JOINT RightCollar
     {
      OFFSET -3.287100 10.529800 0.000000
      CHANNELS 3 Yrotation Xrotation Zrotation
      JOINT RightShoulder
      {
       OFFSET -15.133300 0.000000 0.000000
       CHANNELS 3 Yrotation Xrotation Zrotation
       JOINT RightElbow
       {
        OFFSET -31.521900 0.000000 0.000000
        CHANNELS 3 Yrotation Xrotation Zrotation
        JOINT RightWrist
        {
         OFFSET -25.603000 0.000000 0.003200
         CHANNELS 3 Yrotation Xrotation Zrotation
         End Site
         {
          OFFSET -19.025300 0.000000 0.000000
         }
        }
       }
      }
     }
     JOINT LeftCollar
     {
      OFFSET 3.287100 10.529800 0.000000
      CHANNELS 3 Yrotation Xrotation Zrotation
      JOINT LeftShoulder
      {
       OFFSET 15.133300 0.000000 0.000000
       CHANNELS 3 Yrotation Xrotation Zrotation
       JOINT LeftElbow
       {
        OFFSET 31.521900 0.000000 0.000000
        CHANNELS 3 Yrotation Xrotation Zrotation
        JOINT LeftWrist
        {
         OFFSET 25.603000 0.000000 0.003200
         CHANNELS 3 Yrotation Xrotation Zrotation
         End Site
         {
          OFFSET 19.025300 0.000000 0.000000
         }
        }
       }
      }
     }
    }
   }
  }
 }
 JOINT RightHip
 {
  OFFSET -7.811400 -0.017100 -0.001700
  CHANNELS 3 Yrotation Xrotation Zrotation
  JOINT RightKnee
  {
   OFFSET 0.000000 -49.136000 0.009900
   CHANNELS 3 Yrotation Xrotation Zrotation
   JOINT RightAnkle
   {
    OFFSET 0.000000 -44.857800 0.129700
    CHANNELS 3 Yrotation Xrotation Zrotation
    JOINT RightToe
    {
     OFFSET 0.000000 -7.560000 13.204300
     CHANNELS 3 Yrotation Xrotation Zrotation
     End Site
     {
      OFFSET 0.000000 -1.455800 4.952900
     }
    }
   }
  }
 }
 JOINT LeftHip
 {
  OFFSET 7.811400 -0.017100 -0.001700
  CHANNELS 3 Yrotation Xrotation Zrotation
  JOINT LeftKnee
  {
   OFFSET 0.000000 -49.136000 0.009900
   CHANNELS 3 Yrotation Xrotation Zrotation
   JOINT LeftAnkle
   {
    OFFSET 0.000000 -44.857800 0.129700
    CHANNELS 3 Yrotation Xrotation Zrotation
    JOINT LeftToe
    {
     OFFSET 0.000000 -7.560000 13.204300
     CHANNELS 3 Yrotation Xrotation Zrotation
     End Site
     {
      OFFSET 0.000000 -1.455800 4.952900
     }
    }
   }
  }
 }
}
MOTION
Frames: 6
Frame Time: 0.008333
-194.457635 96.750324 279.394575 177.665328 -48.232351 0.818830 1.597139 12.357985 -1.136016 1.273335 16.087988 1.096604 1.004865 13.376278 0.874285 0.815256 10.743794 0.683111 -15.816562 22.593090 6.731942 -30.177677 9.212925 15.889970 -1.978869 2.010658 -2.959909 3.979961 -21.962688 74.862338 22.661678 33.618051 19.143302 4.329984 -13.068075 -32.277064 -12.007713 -0.350931 -2.060854 2.176903 -23.950833 -61.630740 -76.609613 13.783054 -19.481350 -21.365674 4.435739 7.206293 -7.952736 -58.035587 5.492692 162.853687 67.259815 161.037676 -2.550076 -0.327676 1.815337 -0.138626 -2.299613 0.150844 3.095891 -55.076361 19.849330 168.310007 71.516509 175.489728 -0.584301 -5.372554 -1.805350 0.108591 0.041445 0.001795
-194.469907 96.753887 279.389806 177.617751 -48.223765 0.766815 1.650873 12.381105 -1.044569 1.302581 16.110145 1.110130 1.044601 13.408221 0.890196 0.838883 10.761851 0.694019 -15.826903 22.451378 6.726825 -30.182670 8.981765 15.902204 -1.906289 2.011487 -2.963394 4.288274 -21.864463 74.563882 22.970013 34.468018 19.230450 5.312641 -12.977052 -32.238003 -12.001051 -0.334310 -2.073865 2.120370 -23.883851 -61.540877 -76.615825 13.728650 -19.493062 -21.410378 4.480338 7.076370 -8.051952 -58.032307 5.660667 162.348238 67.186041 160.529857 -2.703991 -0.336456 1.778237 -0.003533 -2.292963 0.181936 2.895963 -55.098245 20.154589 167.959363 71.458825 175.063240 -0.711337 -5.415257 -1.792424 0.075807 0.065050 0.048698
-194.480779 96.757890 279.383697 177.576336 -48.214168 0.741287 1.693782 12.399534 -0.981874 1.332557 16.150193 1.120906 1.081496 13.449707 0.901860 0.844630 10.761208 0.697965 -15.819840 22.327253 6.723543 -30.190340 8.754163 15.924548 -1.814082 2.018885 -2.958205 4.557794 -21.769311 74.287876 23.277243 35.175315 19.350701 6.164196 -12.858713 -32.092774 -11.987631 -0.312613 -2.079967 2.024303 -23.813006 -61.436615 -76.632770 13.716172 -19.457235 -21.429549 4.532777 6.980632 -8.111486 -58.040456 5.757265 161.847881 67.105708 160.026212 -2.812693 -0.328674 1.786807 0.102627 -2.304226 0.176620 2.744046 -55.113399 20.402505 167.774634 71.412507 174.806039 -0.844072 -5.453612 -1.750946 0.102768 0.081931 0.060706
-194.482682 96.763182 279.375981 177.558237 -48.209453 0.680139 1.724143 12.402631 -0.902901 1.371307 16.216408 1.131829 1.072364 13.422875 0.904966 0.897671 10.831461 0.696421 -15.815763 22.210182 6.726587 -30.203679 8.542106 15.957042 -1.737328 2.027638 -2.939760 4.789086 -21.691955 74.049188 23.574348 35.814068 19.495521 6.859743 -12.657805 -31.827205 -11.991893 -0.291821 -2.073512 1.898640 -23.744326 -61.321466 -76.661904 13.747346 -19.384028 -21.429710 4.591253 6.911259 -8.154866 -58.035314 5.861324 161.437705 67.044029 159.636413 -2.933350 -0.325719 1.820984 0.242384 -2.311635 0.173262 2.599839 -55.128165 20.607802 167.737828 71.373885 174.736416 -0.820797 -5.489585 -1.770844 0.103591 0.099013 0.088731
-194.480770 96.770011 279.366519 177.545706 -48.209879 0.622550 1.750033 12.452596 -0.831075 1.414771 16.245318 1.138526 1.116392 13.471635 0.910368 0.905388 10.823613 0.700003 -15.814166 22.103706 6.734607 -30.220956 8.351405 15.996336 -1.678814 2.043017 -2.912266 4.982210 -21.642881 73.853710 23.848803 36.431868 19.649926 7.437064 -12.391289 -31.481706 -12.011283 -0.268582 -2.055296 1.753153 -23.684818 -61.198389 -76.698418 13.812310 -19.286756 -21.418980 4.658349 6.853727 -8.156484 -58.021321 5.923899 161.095982 66.992267 159.321179 -3.015243 -0.337601 1.896473 0.368932 -2.305100 0.155383 2.428770 -55.124104 20.834087 167.795542 71.342676 174.733513 -0.801251 -5.527272 -1.770556 0.105405 0.114260 0.099285
-194.491926 96.779649 279.353869 177.568572 -48.223471 0.642525 1.743331 12.515986 -0.860119 1.449485 16.283495 1.143650 1.163827 13.518286 0.912359 0.909860 10.816259 0.704669 -15.813794 22.006690 6.745123 -30.239493 8.178853 16.038084 -1.632412 2.058031 -2.878943 5.136159 -21.621137 73.692779 24.100721 37.074315 19.807123 7.939153 -12.118474 -31.137937 -12.042266 -0.245733 -2.027999 1.602493 -23.641278 -61.076758 -76.742312 13.900897 -19.179844 -21.393141 4.735131 6.793435 -8.014725 -58.007853 5.784033 160.831462 66.939471 159.070252 -3.086736 -0.347551 1.979697 0.509448 -2.303948 0.155424 2.415607 -55.091589 20.854178 168.172966 71.336791 175.023291 -0.697227 -5.575691 -1.729641 0.098509 0.135281 0.094837
